<svg width="1376" height="1377" xmlns="http://www.w3.org/2000/svg" xmlns:xlink="http://www.w3.org/1999/xlink" xml:space="preserve" overflow="hidden"><defs><clipPath id="clip0"><rect x="2424" y="549" width="1376" height="1377"/></clipPath></defs><g clip-path="url(#clip0)" transform="translate(-2424 -549)"><path d="M2424 778.337C2424 651.678 2526.68 549 2653.34 549L3570.66 549C3697.32 549 3800 651.678 3800 778.337L3800 1696.66C3800 1823.32 3697.32 1926 3570.66 1926L2653.34 1926C2526.68 1926 2424 1823.32 2424 1696.66Z" fill="#F2F2F2" fill-rule="evenodd"/><path d="M3205 939C3205 825.781 3296.78 734 3410 734 3523.22 734 3615 825.781 3615 939 3615 1052.22 3523.22 1144 3410 1144 3296.78 1144 3205 1052.22 3205 939Z" fill="#FFD400" fill-rule="evenodd"/><path d="M2609 1741 2832.5 1355 3056 1741Z" fill="#01FA9A" fill-rule="evenodd"/><rect x="2627" y="734" width="410" height="410" fill="#0064FF"/></g></svg>